<?xml version="1.0" standalone="no"?>
<!DOCTYPE svg PUBLIC "-//W3C//DTD SVG 20010904//EN"
 "http://www.w3.org/TR/2001/REC-SVG-20010904/DTD/svg10.dtd">
<svg version="1.0" xmlns="http://www.w3.org/2000/svg"
 width="700.000000pt" height="700.000000pt" viewBox="0 0 700.000000 700.000000"
 preserveAspectRatio="xMidYMid meet">
<metadata>
Created by potrace 1.11, written by Peter Selinger 2001-2013
</metadata>
<g transform="translate(0.000000,700.000000) scale(0.100000,-0.100000)"
fill="#000000" stroke="none">
<path d="M3269 6886 c-2 -2 -42 -7 -89 -11 -47 -4 -94 -9 -105 -11 -11 -2 -42
-6 -70 -9 -185 -21 -603 -132 -750 -200 -16 -7 -55 -23 -85 -35 -89 -36 -317
-152 -419 -214 -251 -153 -428 -293 -641 -506 -183 -182 -329 -357 -430 -515
-133 -208 -228 -386 -309 -578 -62 -144 -145 -401 -167 -510 -2 -10 -5 -26 -8
-35 -3 -9 -7 -28 -10 -42 -3 -14 -7 -35 -10 -46 -2 -12 -7 -37 -10 -55 -3 -19
-8 -43 -10 -55 -2 -12 -7 -45 -11 -74 -4 -29 -9 -62 -11 -74 -25 -126 -25
-694 1 -836 1 -8 6 -40 10 -70 10 -81 42 -244 66 -335 131 -512 363 -962 709
-1376 47 -56 275 -288 345 -350 226 -201 595 -435 885 -559 41 -18 89 -38 105
-45 42 -19 233 -84 275 -95 19 -4 78 -20 130 -34 96 -25 265 -59 353 -71 27
-4 57 -8 66 -10 102 -20 610 -28 736 -12 33 4 80 10 105 13 558 65 1123 291
1590 634 41 30 80 60 86 65 7 6 58 49 115 97 110 92 280 263 364 363 27 33 52
62 55 65 20 18 123 158 189 257 115 172 230 383 295 543 15 36 33 79 41 95 54
119 149 455 181 640 22 132 24 143 40 280 4 33 8 173 8 310 1 274 -5 366 -40
575 -159 963 -739 1822 -1578 2335 -93 57 -395 215 -411 215 -3 0 -24 9 -48
19 -185 84 -528 182 -762 218 -16 2 -41 6 -55 9 -14 2 -52 6 -85 10 -33 3 -71
8 -85 11 -28 6 -546 14 -551 9z m437 -661 c50 -3 102 -8 115 -10 13 -2 47 -6
74 -10 266 -33 619 -147 873 -282 262 -139 451 -280 662 -492 167 -167 227
-240 344 -414 204 -306 336 -626 410 -997 8 -41 18 -97 21 -125 4 -27 8 -61
11 -75 7 -41 18 -239 18 -325 0 -516 -156 -1047 -432 -1470 -51 -77 -135 -196
-167 -234 -288 -350 -627 -611 -1021 -788 -84 -39 -384 -146 -384 -139 0 2
-21 -2 -47 -10 -109 -34 -311 -68 -468 -80 -158 -12 -414 -7 -540 11 -223 32
-294 47 -475 102 -341 104 -652 270 -938 502 -31 25 -122 111 -202 191 -250
249 -436 522 -569 835 -23 55 -46 109 -51 120 -31 70 -109 349 -125 445 -3 19
-8 42 -10 50 -2 8 -7 42 -11 74 -3 33 -8 67 -9 75 -22 128 -23 521 0 639 1 9
6 44 10 77 3 33 13 92 22 130 8 39 17 83 20 100 10 61 83 289 129 402 223 559
648 1043 1184 1351 306 175 625 282 1010 336 19 3 89 8 155 12 66 4 121 7 122
8 4 3 180 -2 269 -9z"/>
</g>
</svg>
